<svg width="82" height="982" viewBox="0 0 82 982" fill="none" xmlns="http://www.w3.org/2000/svg">
<rect x="31" width="20" height="9.64637" fill="#4964FF"/>
<rect x="31" y="20.2574" width="20" height="9.64637" fill="#4964FF"/>
<rect x="31" y="40.5147" width="20" height="9.64637" fill="#4964FF"/>
<rect x="31" y="60.7721" width="20" height="9.64637" fill="#4964FF"/>
<rect x="31" y="81.0295" width="20" height="9.64637" fill="#4964FF"/>
<rect x="31" y="101.287" width="20" height="9.64637" fill="#4964FF"/>
<rect x="31" y="121.544" width="20" height="9.64637" fill="#4964FF"/>
<rect x="31" y="141.802" width="20" height="9.64637" fill="#4964FF"/>
<rect x="31" y="162.059" width="20" height="9.64637" fill="#4964FF"/>
<rect x="31" y="182.316" width="20" height="9.64637" fill="#4964FF"/>
<rect x="31" y="202.574" width="20" height="9.64637" fill="#4964FF"/>
<rect x="31" y="222.831" width="20" height="9.64637" fill="#4964FF"/>
<rect x="31" y="243.088" width="20" height="9.64637" fill="#4964FF"/>
<rect x="31" y="263.346" width="20" height="9.64637" fill="#4964FF"/>
<rect x="31" y="283.603" width="20" height="9.64637" fill="#4964FF"/>
<rect x="31" y="303.861" width="20" height="9.64637" fill="#4964FF"/>
<rect x="31" y="324.118" width="20" height="9.64637" fill="#4964FF"/>
<rect x="31" y="344.375" width="20" height="9.64637" fill="#4964FF"/>
<rect x="31" y="364.633" width="20" height="9.64637" fill="#4964FF"/>
<rect x="31" y="384.89" width="20" height="9.64637" fill="#4964FF"/>
<rect x="31" y="405.147" width="20" height="9.64637" fill="#4964FF"/>
<rect x="31" y="425.405" width="20" height="9.64637" fill="#4964FF"/>
<rect x="31" y="445.662" width="20" height="9.64637" fill="#4964FF"/>
<rect x="31" y="465.919" width="20" height="9.64637" fill="#4964FF"/>
<rect x="31" y="486.177" width="20" height="9.64637" fill="#4964FF"/>
<rect x="31" y="506.434" width="20" height="9.64637" fill="#4964FF"/>
<rect x="31" y="526.692" width="20" height="9.64637" fill="#4964FF"/>
<rect x="31" y="546.949" width="20" height="9.64637" fill="#4964FF"/>
<rect x="31" y="567.206" width="20" height="9.64637" fill="#4964FF"/>
<rect x="31" y="587.464" width="20" height="9.64637" fill="#4964FF"/>
<rect x="31" y="607.721" width="20" height="9.64637" fill="#4964FF"/>
<rect x="31" y="627.978" width="20" height="9.64637" fill="#4964FF"/>
<rect x="31" y="648.236" width="20" height="9.64637" fill="#4964FF"/>
<rect x="31" y="668.493" width="20" height="9.64637" fill="#4964FF"/>
<rect x="31" y="688.75" width="20" height="9.64637" fill="#4964FF"/>
<rect x="31" y="709.008" width="20" height="9.64637" fill="#4964FF"/>
<rect x="31" y="729.265" width="20" height="9.64637" fill="#4964FF"/>
<rect x="31" y="749.523" width="20" height="9.64637" fill="#4964FF"/>
<rect x="31" y="769.78" width="20" height="9.64637" fill="#4964FF"/>
<rect x="31" y="790.037" width="20" height="9.64637" fill="#4964FF"/>
<rect x="31" y="810.295" width="20" height="9.64637" fill="#4964FF"/>
<rect x="31" y="830.552" width="20" height="9.64637" fill="#4964FF"/>
<rect x="31" y="850.809" width="20" height="9.64637" fill="#4964FF"/>
<rect x="31" y="871.067" width="20" height="9.64637" fill="#4964FF"/>
<rect x="31" y="891.324" width="20" height="9.64637" fill="#4964FF"/>
<rect x="31" y="911.582" width="20" height="9.64637" fill="#4964FF"/>
<rect x="31" y="931.839" width="20" height="9.64637" fill="#4964FF"/>
<rect x="31" y="952.096" width="20" height="9.64637" fill="#4964FF"/>
<rect x="31" y="972.354" width="20" height="9.64637" fill="#4964FF"/>
<rect y="-9" width="20" height="9.64637" fill="#4964FF"/>
<rect y="11.2574" width="20" height="9.64637" fill="#4964FF"/>
<rect y="31.5147" width="20" height="9.64637" fill="#4964FF"/>
<rect y="51.7721" width="20" height="9.64637" fill="#4964FF"/>
<rect y="72.0295" width="20" height="9.64637" fill="#4964FF"/>
<rect y="92.2868" width="20" height="9.64637" fill="#4964FF"/>
<rect y="112.544" width="20" height="9.64637" fill="#4964FF"/>
<rect y="132.802" width="20" height="9.64637" fill="#4964FF"/>
<rect y="153.059" width="20" height="9.64637" fill="#4964FF"/>
<rect y="173.316" width="20" height="9.64637" fill="#4964FF"/>
<rect y="193.574" width="20" height="9.64637" fill="#4964FF"/>
<rect y="213.831" width="20" height="9.64637" fill="#4964FF"/>
<rect y="234.088" width="20" height="9.64637" fill="#4964FF"/>
<rect y="254.346" width="20" height="9.64637" fill="#4964FF"/>
<rect y="274.603" width="20" height="9.64637" fill="#4964FF"/>
<rect y="294.861" width="20" height="9.64637" fill="#4964FF"/>
<rect y="315.118" width="20" height="9.64637" fill="#4964FF"/>
<rect y="335.375" width="20" height="9.64637" fill="#4964FF"/>
<rect y="355.633" width="20" height="9.64637" fill="#4964FF"/>
<rect y="375.89" width="20" height="9.64637" fill="#4964FF"/>
<rect y="396.147" width="20" height="9.64637" fill="#4964FF"/>
<rect y="416.405" width="20" height="9.64637" fill="#4964FF"/>
<rect y="436.662" width="20" height="9.64637" fill="#4964FF"/>
<rect y="456.919" width="20" height="9.64637" fill="#4964FF"/>
<rect y="477.177" width="20" height="9.64637" fill="#4964FF"/>
<rect y="497.434" width="20" height="9.64637" fill="#4964FF"/>
<rect y="517.692" width="20" height="9.64637" fill="#4964FF"/>
<rect y="537.949" width="20" height="9.64637" fill="#4964FF"/>
<rect y="558.206" width="20" height="9.64637" fill="#4964FF"/>
<rect y="578.464" width="20" height="9.64637" fill="#4964FF"/>
<rect y="598.721" width="20" height="9.64637" fill="#4964FF"/>
<rect y="618.978" width="20" height="9.64637" fill="#4964FF"/>
<rect y="639.236" width="20" height="9.64637" fill="#4964FF"/>
<rect y="659.493" width="20" height="9.64637" fill="#4964FF"/>
<rect y="679.75" width="20" height="9.64637" fill="#4964FF"/>
<rect y="700.008" width="20" height="9.64637" fill="#4964FF"/>
<rect y="720.265" width="20" height="9.64637" fill="#4964FF"/>
<rect y="740.523" width="20" height="9.64637" fill="#4964FF"/>
<rect y="760.78" width="20" height="9.64637" fill="#4964FF"/>
<rect y="781.037" width="20" height="9.64637" fill="#4964FF"/>
<rect y="801.295" width="20" height="9.64637" fill="#4964FF"/>
<rect y="821.552" width="20" height="9.64637" fill="#4964FF"/>
<rect y="841.809" width="20" height="9.64637" fill="#4964FF"/>
<rect y="862.067" width="20" height="9.64637" fill="#4964FF"/>
<rect y="882.324" width="20" height="9.64637" fill="#4964FF"/>
<rect y="902.582" width="20" height="9.64637" fill="#4964FF"/>
<rect y="922.839" width="20" height="9.64637" fill="#4964FF"/>
<rect y="943.096" width="20" height="9.64637" fill="#4964FF"/>
<rect y="963.354" width="20" height="9.64637" fill="#4964FF"/>
<rect x="62" y="-9" width="20" height="9.64637" fill="#4964FF"/>
<rect x="62" y="11.2574" width="20" height="9.64637" fill="#4964FF"/>
<rect x="62" y="31.5147" width="20" height="9.64637" fill="#4964FF"/>
<rect x="62" y="51.7721" width="20" height="9.64637" fill="#4964FF"/>
<rect x="62" y="72.0295" width="20" height="9.64637" fill="#4964FF"/>
<rect x="62" y="92.2868" width="20" height="9.64637" fill="#4964FF"/>
<rect x="62" y="112.544" width="20" height="9.64637" fill="#4964FF"/>
<rect x="62" y="132.802" width="20" height="9.64637" fill="#4964FF"/>
<rect x="62" y="153.059" width="20" height="9.64637" fill="#4964FF"/>
<rect x="62" y="173.316" width="20" height="9.64637" fill="#4964FF"/>
<rect x="62" y="193.574" width="20" height="9.64637" fill="#4964FF"/>
<rect x="62" y="213.831" width="20" height="9.64637" fill="#4964FF"/>
<rect x="62" y="234.088" width="20" height="9.64637" fill="#4964FF"/>
<rect x="62" y="254.346" width="20" height="9.64637" fill="#4964FF"/>
<rect x="62" y="274.603" width="20" height="9.64637" fill="#4964FF"/>
<rect x="62" y="294.861" width="20" height="9.64637" fill="#4964FF"/>
<rect x="62" y="315.118" width="20" height="9.64637" fill="#4964FF"/>
<rect x="62" y="335.375" width="20" height="9.64637" fill="#4964FF"/>
<rect x="62" y="355.633" width="20" height="9.64637" fill="#4964FF"/>
<rect x="62" y="375.89" width="20" height="9.64637" fill="#4964FF"/>
<rect x="62" y="396.147" width="20" height="9.64637" fill="#4964FF"/>
<rect x="62" y="416.405" width="20" height="9.64637" fill="#4964FF"/>
<rect x="62" y="436.662" width="20" height="9.64637" fill="#4964FF"/>
<rect x="62" y="456.919" width="20" height="9.64637" fill="#4964FF"/>
<rect x="62" y="477.177" width="20" height="9.64637" fill="#4964FF"/>
<rect x="62" y="497.434" width="20" height="9.64637" fill="#4964FF"/>
<rect x="62" y="517.692" width="20" height="9.64637" fill="#4964FF"/>
<rect x="62" y="537.949" width="20" height="9.64637" fill="#4964FF"/>
<rect x="62" y="558.206" width="20" height="9.64637" fill="#4964FF"/>
<rect x="62" y="578.464" width="20" height="9.64637" fill="#4964FF"/>
<rect x="62" y="598.721" width="20" height="9.64637" fill="#4964FF"/>
<rect x="62" y="618.978" width="20" height="9.64637" fill="#4964FF"/>
<rect x="62" y="639.236" width="20" height="9.64637" fill="#4964FF"/>
<rect x="62" y="659.493" width="20" height="9.64637" fill="#4964FF"/>
<rect x="62" y="679.75" width="20" height="9.64637" fill="#4964FF"/>
<rect x="62" y="700.008" width="20" height="9.64637" fill="#4964FF"/>
<rect x="62" y="720.265" width="20" height="9.64637" fill="#4964FF"/>
<rect x="62" y="740.523" width="20" height="9.64637" fill="#4964FF"/>
<rect x="62" y="760.78" width="20" height="9.64637" fill="#4964FF"/>
<rect x="62" y="781.037" width="20" height="9.64637" fill="#4964FF"/>
<rect x="62" y="801.295" width="20" height="9.64637" fill="#4964FF"/>
<rect x="62" y="821.552" width="20" height="9.64637" fill="#4964FF"/>
<rect x="62" y="841.809" width="20" height="9.64637" fill="#4964FF"/>
<rect x="62" y="862.067" width="20" height="9.64637" fill="#4964FF"/>
<rect x="62" y="882.324" width="20" height="9.64637" fill="#4964FF"/>
<rect x="62" y="902.582" width="20" height="9.64637" fill="#4964FF"/>
<rect x="62" y="922.839" width="20" height="9.64637" fill="#4964FF"/>
<rect x="62" y="943.096" width="20" height="9.64637" fill="#4964FF"/>
<rect x="62" y="963.354" width="20" height="9.64637" fill="#4964FF"/>
</svg>
